<?xml version="1.0" standalone="no"?>
<!DOCTYPE svg PUBLIC "-//W3C//DTD SVG 20010904//EN"
 "http://www.w3.org/TR/2001/REC-SVG-20010904/DTD/svg10.dtd">
<svg version="1.0" xmlns="http://www.w3.org/2000/svg"
 width="225.000000pt" height="225.000000pt" viewBox="0 0 225.000000 225.000000"
 preserveAspectRatio="xMidYMid meet">

<g transform="translate(0.000000,225.000000) scale(0.100000,-0.100000)"
fill="#000000" stroke="none">
<path fill='#07c972' d="M660 2235 c-163 -31 -298 -103 -420 -225 -127 -127 -196 -260 -226
-434 -88 -503 329 -966 839 -933 120 8 203 29 307 80 47 23 88 43 93 45 4 2 7
-6 7 -17 0 -58 37 -102 333 -399 166 -167 320 -313 342 -325 61 -32 146 -30
207 6 96 56 133 185 81 282 -12 22 -158 176 -325 342 -297 296 -341 333 -399
333 -11 0 -19 3 -17 8 2 4 22 45 45 92 98 201 109 422 31 636 -83 231 -296
426 -538 494 -99 27 -261 34 -360 15z m284 -251 c246 -64 416 -282 416 -536 0
-51 -7 -117 -15 -147 -33 -126 -114 -241 -221 -314 -101 -69 -167 -90 -299
-95 -99 -4 -118 -1 -189 22 -236 80 -386 286 -386 531 0 154 52 278 165 390
113 113 229 163 384 164 46 1 111 -6 145 -15z"/>
</g>
</svg>
